<mxfile host="app.diagrams.net" modified="2023-10-21T21:50:47.119Z" agent="Mozilla/5.0 (Windows NT 10.0; Win64; x64) AppleWebKit/537.36 (KHTML, like Gecko) Chrome/117.0.0.0 Safari/537.36 OPR/103.0.0.0" etag="lhrcSE93Aiw-bFA0M9cE" version="22.0.6" type="google">
  <diagram id="g8N3Kdo69OnTdwtDbKbT" name="Página-1">
    <mxGraphModel grid="1" page="1" gridSize="10" guides="1" tooltips="1" connect="1" arrows="1" fold="1" pageScale="1" pageWidth="827" pageHeight="1169" math="0" shadow="0">
      <root>
        <mxCell id="0" />
        <mxCell id="1" parent="0" />
        <mxCell id="AgO6PGDD-M8r1HCDcTIs-2" value="Projeto Catalogação EcoTurismo" style="rounded=1;whiteSpace=wrap;html=1;" vertex="1" parent="1">
          <mxGeometry x="290" y="60" width="190" height="60" as="geometry" />
        </mxCell>
        <mxCell id="AgO6PGDD-M8r1HCDcTIs-5" value="" style="endArrow=none;html=1;rounded=0;entryX=0.5;entryY=1;entryDx=0;entryDy=0;" edge="1" parent="1" target="AgO6PGDD-M8r1HCDcTIs-2">
          <mxGeometry width="50" height="50" relative="1" as="geometry">
            <mxPoint x="385" y="170" as="sourcePoint" />
            <mxPoint x="440" y="250" as="targetPoint" />
            <Array as="points">
              <mxPoint x="385" y="150" />
            </Array>
          </mxGeometry>
        </mxCell>
        <mxCell id="AgO6PGDD-M8r1HCDcTIs-6" value="" style="endArrow=none;html=1;rounded=0;" edge="1" parent="1">
          <mxGeometry width="50" height="50" relative="1" as="geometry">
            <mxPoint y="170" as="sourcePoint" />
            <mxPoint x="720" y="170" as="targetPoint" />
          </mxGeometry>
        </mxCell>
        <mxCell id="AgO6PGDD-M8r1HCDcTIs-7" value="" style="endArrow=classic;html=1;rounded=0;" edge="1" parent="1">
          <mxGeometry width="50" height="50" relative="1" as="geometry">
            <mxPoint y="170" as="sourcePoint" />
            <mxPoint y="200" as="targetPoint" />
          </mxGeometry>
        </mxCell>
        <mxCell id="AgO6PGDD-M8r1HCDcTIs-8" value="" style="endArrow=classic;html=1;rounded=0;" edge="1" parent="1">
          <mxGeometry width="50" height="50" relative="1" as="geometry">
            <mxPoint x="719.66" y="170" as="sourcePoint" />
            <mxPoint x="719.66" y="200" as="targetPoint" />
          </mxGeometry>
        </mxCell>
        <mxCell id="AgO6PGDD-M8r1HCDcTIs-10" value="" style="endArrow=classic;html=1;rounded=0;" edge="1" parent="1">
          <mxGeometry width="50" height="50" relative="1" as="geometry">
            <mxPoint x="120" y="170" as="sourcePoint" />
            <mxPoint x="120" y="200" as="targetPoint" />
          </mxGeometry>
        </mxCell>
        <mxCell id="AgO6PGDD-M8r1HCDcTIs-11" value="" style="endArrow=classic;html=1;rounded=0;" edge="1" parent="1">
          <mxGeometry width="50" height="50" relative="1" as="geometry">
            <mxPoint x="240" y="170" as="sourcePoint" />
            <mxPoint x="240" y="200" as="targetPoint" />
          </mxGeometry>
        </mxCell>
        <mxCell id="AgO6PGDD-M8r1HCDcTIs-12" value="" style="endArrow=classic;html=1;rounded=0;" edge="1" parent="1">
          <mxGeometry width="50" height="50" relative="1" as="geometry">
            <mxPoint x="360" y="170" as="sourcePoint" />
            <mxPoint x="360" y="200" as="targetPoint" />
          </mxGeometry>
        </mxCell>
        <mxCell id="AgO6PGDD-M8r1HCDcTIs-13" value="" style="endArrow=classic;html=1;rounded=0;" edge="1" parent="1">
          <mxGeometry width="50" height="50" relative="1" as="geometry">
            <mxPoint x="480" y="170" as="sourcePoint" />
            <mxPoint x="480" y="200" as="targetPoint" />
          </mxGeometry>
        </mxCell>
        <mxCell id="AgO6PGDD-M8r1HCDcTIs-14" value="" style="endArrow=classic;html=1;rounded=0;" edge="1" parent="1">
          <mxGeometry width="50" height="50" relative="1" as="geometry">
            <mxPoint x="600" y="170" as="sourcePoint" />
            <mxPoint x="600" y="200" as="targetPoint" />
          </mxGeometry>
        </mxCell>
        <mxCell id="AgO6PGDD-M8r1HCDcTIs-28" style="edgeStyle=orthogonalEdgeStyle;rounded=0;orthogonalLoop=1;jettySize=auto;html=1;exitX=0.5;exitY=1;exitDx=0;exitDy=0;fontFamily=Georgia;fontSize=8;fontColor=#454545;" edge="1" parent="1" source="AgO6PGDD-M8r1HCDcTIs-16" target="AgO6PGDD-M8r1HCDcTIs-27">
          <mxGeometry relative="1" as="geometry">
            <Array as="points">
              <mxPoint y="290" />
            </Array>
          </mxGeometry>
        </mxCell>
        <mxCell id="AgO6PGDD-M8r1HCDcTIs-16" value="&lt;h6&gt;&lt;font color=&quot;#454545&quot; face=&quot;Times New Roman&quot;&gt;Planejamento&lt;/font&gt;&lt;/h6&gt;" style="rounded=0;whiteSpace=wrap;html=1;" vertex="1" parent="1">
          <mxGeometry x="-40" y="200" width="80" height="40" as="geometry" />
        </mxCell>
        <mxCell id="AgO6PGDD-M8r1HCDcTIs-32" style="edgeStyle=orthogonalEdgeStyle;rounded=0;orthogonalLoop=1;jettySize=auto;html=1;exitX=0.5;exitY=1;exitDx=0;exitDy=0;fontFamily=Georgia;fontSize=8;fontColor=#454545;" edge="1" parent="1" source="AgO6PGDD-M8r1HCDcTIs-17" target="AgO6PGDD-M8r1HCDcTIs-31">
          <mxGeometry relative="1" as="geometry">
            <Array as="points">
              <mxPoint x="120" y="290" />
            </Array>
          </mxGeometry>
        </mxCell>
        <mxCell id="AgO6PGDD-M8r1HCDcTIs-17" value="&lt;h6&gt;&lt;font color=&quot;#454545&quot; face=&quot;Times New Roman&quot;&gt;Analise&lt;/font&gt;&lt;/h6&gt;" style="rounded=0;whiteSpace=wrap;html=1;" vertex="1" parent="1">
          <mxGeometry x="80" y="200" width="80" height="40" as="geometry" />
        </mxCell>
        <mxCell id="AgO6PGDD-M8r1HCDcTIs-41" style="edgeStyle=orthogonalEdgeStyle;rounded=0;orthogonalLoop=1;jettySize=auto;html=1;exitX=0.5;exitY=1;exitDx=0;exitDy=0;fontFamily=Georgia;fontSize=8;fontColor=#454545;" edge="1" parent="1" source="AgO6PGDD-M8r1HCDcTIs-18">
          <mxGeometry relative="1" as="geometry">
            <mxPoint x="250" y="290.0344827586207" as="targetPoint" />
            <Array as="points">
              <mxPoint x="240" y="290" />
            </Array>
          </mxGeometry>
        </mxCell>
        <mxCell id="AgO6PGDD-M8r1HCDcTIs-18" value="&lt;h6&gt;&lt;font color=&quot;#454545&quot; face=&quot;Times New Roman&quot;&gt;Design&lt;/font&gt;&lt;/h6&gt;" style="rounded=0;whiteSpace=wrap;html=1;" vertex="1" parent="1">
          <mxGeometry x="200" y="200" width="80" height="40" as="geometry" />
        </mxCell>
        <mxCell id="AgO6PGDD-M8r1HCDcTIs-53" style="edgeStyle=orthogonalEdgeStyle;rounded=0;orthogonalLoop=1;jettySize=auto;html=1;exitX=0.5;exitY=1;exitDx=0;exitDy=0;fontFamily=Georgia;fontSize=8;fontColor=#454545;" edge="1" parent="1" source="AgO6PGDD-M8r1HCDcTIs-19">
          <mxGeometry relative="1" as="geometry">
            <mxPoint x="370" y="290" as="targetPoint" />
            <Array as="points">
              <mxPoint x="360" y="290" />
            </Array>
          </mxGeometry>
        </mxCell>
        <mxCell id="AgO6PGDD-M8r1HCDcTIs-19" value="&lt;h6 style=&quot;line-height: 0%;&quot;&gt;&lt;font style=&quot;&quot; face=&quot;Georgia&quot;&gt;&lt;font style=&quot;&quot; color=&quot;#454545&quot;&gt;Construção&lt;/font&gt;&lt;/font&gt;&lt;/h6&gt;&lt;h6 style=&quot;line-height: 0%;&quot;&gt;&lt;font color=&quot;#454545&quot;&gt;Banco de Dados&lt;/font&gt;&lt;/h6&gt;" style="rounded=0;whiteSpace=wrap;html=1;" vertex="1" parent="1">
          <mxGeometry x="320" y="200" width="80" height="40" as="geometry" />
        </mxCell>
        <mxCell id="AgO6PGDD-M8r1HCDcTIs-59" style="edgeStyle=orthogonalEdgeStyle;rounded=0;orthogonalLoop=1;jettySize=auto;html=1;fontFamily=Georgia;fontSize=8;fontColor=#454545;entryX=0;entryY=0.5;entryDx=0;entryDy=0;" edge="1" parent="1" source="AgO6PGDD-M8r1HCDcTIs-20" target="AgO6PGDD-M8r1HCDcTIs-60">
          <mxGeometry relative="1" as="geometry">
            <mxPoint x="470" y="290" as="targetPoint" />
            <Array as="points">
              <mxPoint x="480" y="290" />
            </Array>
          </mxGeometry>
        </mxCell>
        <mxCell id="AgO6PGDD-M8r1HCDcTIs-20" value="&lt;h6 style=&quot;line-height: 10%;&quot;&gt;&lt;font color=&quot;#454545&quot; face=&quot;Times New Roman&quot;&gt;Construção&amp;nbsp;&lt;/font&gt;&lt;/h6&gt;&lt;h6 style=&quot;line-height: 10%;&quot;&gt;&lt;font color=&quot;#454545&quot; face=&quot;Times New Roman&quot;&gt;Back-End&lt;/font&gt;&lt;/h6&gt;" style="rounded=0;whiteSpace=wrap;html=1;" vertex="1" parent="1">
          <mxGeometry x="440" y="200" width="80" height="40" as="geometry" />
        </mxCell>
        <mxCell id="AgO6PGDD-M8r1HCDcTIs-21" value="&lt;h6 style=&quot;line-height: 10%;&quot;&gt;&lt;font color=&quot;#454545&quot; face=&quot;Times New Roman&quot;&gt;Construção&lt;/font&gt;&lt;/h6&gt;&lt;h6 style=&quot;line-height: 10%;&quot;&gt;&lt;font color=&quot;#454545&quot; face=&quot;Times New Roman&quot;&gt;&amp;nbsp;Front-End&lt;/font&gt;&lt;/h6&gt;" style="rounded=0;whiteSpace=wrap;html=1;" vertex="1" parent="1">
          <mxGeometry x="560" y="200" width="80" height="40" as="geometry" />
        </mxCell>
        <mxCell id="AgO6PGDD-M8r1HCDcTIs-22" value="&lt;h6&gt;&lt;font color=&quot;#454545&quot; face=&quot;Times New Roman&quot;&gt;Testes&lt;/font&gt;&lt;/h6&gt;" style="rounded=0;whiteSpace=wrap;html=1;" vertex="1" parent="1">
          <mxGeometry x="680" y="200" width="80" height="40" as="geometry" />
        </mxCell>
        <mxCell id="AgO6PGDD-M8r1HCDcTIs-30" style="edgeStyle=orthogonalEdgeStyle;rounded=0;orthogonalLoop=1;jettySize=auto;html=1;fontFamily=Georgia;fontSize=8;fontColor=#454545;" edge="1" parent="1" source="AgO6PGDD-M8r1HCDcTIs-27" target="AgO6PGDD-M8r1HCDcTIs-29">
          <mxGeometry relative="1" as="geometry" />
        </mxCell>
        <mxCell id="AgO6PGDD-M8r1HCDcTIs-27" value="&lt;h6&gt;&lt;font face=&quot;Times New Roman&quot;&gt;&lt;span style=&quot;font-size: 8px;&quot;&gt;Briefing&lt;/span&gt;&lt;/font&gt;&lt;/h6&gt;" style="rounded=0;whiteSpace=wrap;html=1;fontFamily=Georgia;fontSize=8;fontColor=#454545;" vertex="1" parent="1">
          <mxGeometry x="10" y="270" width="80" height="40" as="geometry" />
        </mxCell>
        <mxCell id="AgO6PGDD-M8r1HCDcTIs-29" value="&lt;h6&gt;&lt;font style=&quot;font-size: 8px;&quot; face=&quot;Times New Roman&quot;&gt;Cronograma&amp;nbsp;&lt;/font&gt;&lt;/h6&gt;" style="rounded=0;whiteSpace=wrap;html=1;fontFamily=Georgia;fontSize=8;fontColor=#454545;" vertex="1" parent="1">
          <mxGeometry x="10" y="330" width="80" height="40" as="geometry" />
        </mxCell>
        <mxCell id="AgO6PGDD-M8r1HCDcTIs-34" style="edgeStyle=orthogonalEdgeStyle;rounded=0;orthogonalLoop=1;jettySize=auto;html=1;fontFamily=Georgia;fontSize=8;fontColor=#454545;" edge="1" parent="1" source="AgO6PGDD-M8r1HCDcTIs-31" target="AgO6PGDD-M8r1HCDcTIs-33">
          <mxGeometry relative="1" as="geometry" />
        </mxCell>
        <mxCell id="AgO6PGDD-M8r1HCDcTIs-31" value="&lt;h6&gt;&lt;font style=&quot;font-size: 8px;&quot; color=&quot;#454545&quot; face=&quot;Times New Roman&quot;&gt;EAP&lt;/font&gt;&lt;/h6&gt;" style="rounded=0;whiteSpace=wrap;html=1;fontFamily=Georgia;fontSize=8;fontColor=#454545;" vertex="1" parent="1">
          <mxGeometry x="130" y="270" width="80" height="40" as="geometry" />
        </mxCell>
        <mxCell id="AgO6PGDD-M8r1HCDcTIs-36" style="edgeStyle=orthogonalEdgeStyle;rounded=0;orthogonalLoop=1;jettySize=auto;html=1;fontFamily=Georgia;fontSize=8;fontColor=#454545;" edge="1" parent="1" source="AgO6PGDD-M8r1HCDcTIs-33">
          <mxGeometry relative="1" as="geometry">
            <mxPoint x="170" y="390" as="targetPoint" />
          </mxGeometry>
        </mxCell>
        <mxCell id="AgO6PGDD-M8r1HCDcTIs-33" value="&lt;h6&gt;&lt;font face=&quot;Times New Roman&quot;&gt;&lt;span style=&quot;font-size: 8px;&quot;&gt;Documento de Requisitos&lt;/span&gt;&lt;/font&gt;&lt;/h6&gt;" style="rounded=0;whiteSpace=wrap;html=1;fontFamily=Georgia;fontSize=8;fontColor=#454545;" vertex="1" parent="1">
          <mxGeometry x="130" y="330" width="80" height="40" as="geometry" />
        </mxCell>
        <mxCell id="AgO6PGDD-M8r1HCDcTIs-45" style="edgeStyle=orthogonalEdgeStyle;rounded=0;orthogonalLoop=1;jettySize=auto;html=1;fontFamily=Georgia;fontSize=8;fontColor=#454545;" edge="1" parent="1" source="AgO6PGDD-M8r1HCDcTIs-43" target="AgO6PGDD-M8r1HCDcTIs-44">
          <mxGeometry relative="1" as="geometry" />
        </mxCell>
        <mxCell id="AgO6PGDD-M8r1HCDcTIs-43" value="&lt;h6&gt;&lt;font style=&quot;font-size: 8px;&quot; color=&quot;#454545&quot; face=&quot;Times New Roman&quot;&gt;BPMN&lt;/font&gt;&lt;/h6&gt;" style="rounded=0;whiteSpace=wrap;html=1;fontFamily=Georgia;fontSize=8;fontColor=#454545;" vertex="1" parent="1">
          <mxGeometry x="250" y="270" width="80" height="40" as="geometry" />
        </mxCell>
        <mxCell id="AgO6PGDD-M8r1HCDcTIs-51" style="edgeStyle=orthogonalEdgeStyle;rounded=0;orthogonalLoop=1;jettySize=auto;html=1;fontFamily=Georgia;fontSize=8;fontColor=#454545;" edge="1" parent="1" source="AgO6PGDD-M8r1HCDcTIs-44">
          <mxGeometry relative="1" as="geometry">
            <mxPoint x="290.0344827586207" y="389.9999999999999" as="targetPoint" />
          </mxGeometry>
        </mxCell>
        <mxCell id="AgO6PGDD-M8r1HCDcTIs-44" value="&lt;h6&gt;&lt;span style=&quot;background-color: initial; font-size: 8px;&quot;&gt;Modelo Conceitual do banco de dados&lt;/span&gt;&lt;br&gt;&lt;/h6&gt;" style="rounded=0;whiteSpace=wrap;html=1;fontFamily=Georgia;fontSize=8;fontColor=#454545;" vertex="1" parent="1">
          <mxGeometry x="250" y="330" width="80" height="40" as="geometry" />
        </mxCell>
        <mxCell id="AgO6PGDD-M8r1HCDcTIs-48" value="&lt;h6&gt;&lt;font face=&quot;Times New Roman&quot;&gt;&lt;span style=&quot;font-size: 8px;&quot;&gt;&amp;nbsp;Diagrama de Caso de uso&lt;/span&gt;&lt;/font&gt;&lt;/h6&gt;" style="rounded=0;whiteSpace=wrap;html=1;fontFamily=Georgia;fontSize=8;fontColor=#454545;" vertex="1" parent="1">
          <mxGeometry x="130" y="390" width="80" height="40" as="geometry" />
        </mxCell>
        <mxCell id="AgO6PGDD-M8r1HCDcTIs-56" style="edgeStyle=orthogonalEdgeStyle;rounded=0;orthogonalLoop=1;jettySize=auto;html=1;fontFamily=Georgia;fontSize=8;fontColor=#454545;" edge="1" parent="1" target="AgO6PGDD-M8r1HCDcTIs-55">
          <mxGeometry relative="1" as="geometry">
            <mxPoint x="290.0344827586207" y="430.0000000000001" as="sourcePoint" />
          </mxGeometry>
        </mxCell>
        <mxCell id="AgO6PGDD-M8r1HCDcTIs-54" value="&lt;h6&gt;&lt;font face=&quot;Times New Roman&quot;&gt;&lt;span style=&quot;font-size: 8px;&quot;&gt;Modelo Físico do banco de dados&lt;/span&gt;&lt;/font&gt;&lt;/h6&gt;" style="rounded=0;whiteSpace=wrap;html=1;fontFamily=Georgia;fontSize=8;fontColor=#454545;" vertex="1" parent="1">
          <mxGeometry x="373" y="270" width="80" height="40" as="geometry" />
        </mxCell>
        <mxCell id="AgO6PGDD-M8r1HCDcTIs-55" value="&lt;h6&gt;&lt;font style=&quot;font-size: 8px;&quot; color=&quot;#454545&quot; face=&quot;Times New Roman&quot;&gt;Prototipação das telas&lt;/font&gt;&lt;/h6&gt;" style="rounded=0;whiteSpace=wrap;html=1;fontFamily=Georgia;fontSize=8;fontColor=#454545;" vertex="1" parent="1">
          <mxGeometry x="250" y="450" width="80" height="40" as="geometry" />
        </mxCell>
        <mxCell id="AgO6PGDD-M8r1HCDcTIs-57" value="&lt;h6&gt;&lt;font style=&quot;font-size: 8px;&quot;&gt;Diagrama de classes&lt;/font&gt;&lt;br&gt;&lt;/h6&gt;" style="rounded=0;whiteSpace=wrap;html=1;fontFamily=Georgia;fontSize=8;fontColor=#454545;" vertex="1" parent="1">
          <mxGeometry x="250" y="390" width="80" height="40" as="geometry" />
        </mxCell>
        <mxCell id="AgO6PGDD-M8r1HCDcTIs-62" style="edgeStyle=orthogonalEdgeStyle;rounded=0;orthogonalLoop=1;jettySize=auto;html=1;fontFamily=Georgia;fontSize=8;fontColor=#454545;" edge="1" parent="1" source="AgO6PGDD-M8r1HCDcTIs-60" target="AgO6PGDD-M8r1HCDcTIs-61">
          <mxGeometry relative="1" as="geometry" />
        </mxCell>
        <mxCell id="AgO6PGDD-M8r1HCDcTIs-60" value="&lt;h6&gt;&lt;font style=&quot;font-size: 8px;&quot; color=&quot;#454545&quot; face=&quot;Times New Roman&quot;&gt;Criação API&lt;/font&gt;&lt;/h6&gt;" style="rounded=0;whiteSpace=wrap;html=1;fontFamily=Georgia;fontSize=8;fontColor=#454545;" vertex="1" parent="1">
          <mxGeometry x="490" y="270" width="80" height="40" as="geometry" />
        </mxCell>
        <mxCell id="AgO6PGDD-M8r1HCDcTIs-64" style="edgeStyle=orthogonalEdgeStyle;rounded=0;orthogonalLoop=1;jettySize=auto;html=1;fontFamily=Georgia;fontSize=8;fontColor=#454545;" edge="1" parent="1" source="AgO6PGDD-M8r1HCDcTIs-61" target="AgO6PGDD-M8r1HCDcTIs-63">
          <mxGeometry relative="1" as="geometry" />
        </mxCell>
        <mxCell id="AgO6PGDD-M8r1HCDcTIs-61" value="&lt;h6&gt;&lt;font style=&quot;font-size: 8px;&quot; color=&quot;#454545&quot; face=&quot;Times New Roman&quot;&gt;Criação de eventos/pontos culturais&lt;/font&gt;&lt;/h6&gt;" style="rounded=0;whiteSpace=wrap;html=1;fontFamily=Georgia;fontSize=8;fontColor=#454545;" vertex="1" parent="1">
          <mxGeometry x="490" y="330" width="80" height="40" as="geometry" />
        </mxCell>
        <mxCell id="AgO6PGDD-M8r1HCDcTIs-66" style="edgeStyle=orthogonalEdgeStyle;rounded=0;orthogonalLoop=1;jettySize=auto;html=1;fontFamily=Georgia;fontSize=8;fontColor=#454545;" edge="1" parent="1" source="AgO6PGDD-M8r1HCDcTIs-63" target="AgO6PGDD-M8r1HCDcTIs-65">
          <mxGeometry relative="1" as="geometry" />
        </mxCell>
        <mxCell id="AgO6PGDD-M8r1HCDcTIs-63" value="&lt;h6&gt;&lt;font style=&quot;font-size: 8px;&quot; color=&quot;#454545&quot; face=&quot;Times New Roman&quot;&gt;Busca e detalhamento de eventos e pontos culturais&lt;/font&gt;&lt;/h6&gt;" style="rounded=0;whiteSpace=wrap;html=1;fontFamily=Georgia;fontSize=8;fontColor=#454545;" vertex="1" parent="1">
          <mxGeometry x="490" y="390" width="80" height="40" as="geometry" />
        </mxCell>
        <mxCell id="AgO6PGDD-M8r1HCDcTIs-65" value="&lt;h6&gt;&lt;font face=&quot;Times New Roman&quot;&gt;&lt;span style=&quot;font-size: 8px;&quot;&gt;Comentários sobre os eventos&lt;/span&gt;&lt;/font&gt;&lt;/h6&gt;" style="rounded=0;whiteSpace=wrap;html=1;fontFamily=Georgia;fontSize=8;fontColor=#454545;" vertex="1" parent="1">
          <mxGeometry x="490" y="450" width="80" height="40" as="geometry" />
        </mxCell>
        <mxCell id="SuHVIz9C5aGsHE7YICeY-4" style="edgeStyle=orthogonalEdgeStyle;rounded=0;orthogonalLoop=1;jettySize=auto;html=1;fontFamily=Georgia;fontSize=8;fontColor=#454545;entryX=0;entryY=0.5;entryDx=0;entryDy=0;" edge="1" parent="1" target="SuHVIz9C5aGsHE7YICeY-5">
          <mxGeometry relative="1" as="geometry">
            <mxPoint x="590" y="290" as="targetPoint" />
            <Array as="points">
              <mxPoint x="600" y="290" />
            </Array>
            <mxPoint x="600" y="240" as="sourcePoint" />
          </mxGeometry>
        </mxCell>
        <mxCell id="SuHVIz9C5aGsHE7YICeY-11" style="edgeStyle=orthogonalEdgeStyle;rounded=0;orthogonalLoop=1;jettySize=auto;html=1;exitX=0.5;exitY=1;exitDx=0;exitDy=0;entryX=0.503;entryY=-0.07;entryDx=0;entryDy=0;entryPerimeter=0;" edge="1" parent="1" source="SuHVIz9C5aGsHE7YICeY-5" target="SuHVIz9C5aGsHE7YICeY-9">
          <mxGeometry relative="1" as="geometry" />
        </mxCell>
        <mxCell id="SuHVIz9C5aGsHE7YICeY-5" value="&lt;h6&gt;&lt;font style=&quot;font-size: 8px;&quot; color=&quot;#454545&quot; face=&quot;Times New Roman&quot;&gt;Criação do projeto&lt;/font&gt;&lt;/h6&gt;" style="rounded=0;whiteSpace=wrap;html=1;fontFamily=Georgia;fontSize=8;fontColor=#454545;" vertex="1" parent="1">
          <mxGeometry x="610" y="270" width="80" height="40" as="geometry" />
        </mxCell>
        <mxCell id="SuHVIz9C5aGsHE7YICeY-8" style="edgeStyle=orthogonalEdgeStyle;rounded=0;orthogonalLoop=1;jettySize=auto;html=1;fontFamily=Georgia;fontSize=8;fontColor=#454545;" edge="1" parent="1" source="SuHVIz9C5aGsHE7YICeY-9">
          <mxGeometry relative="1" as="geometry">
            <mxPoint x="650" y="390" as="targetPoint" />
          </mxGeometry>
        </mxCell>
        <mxCell id="SuHVIz9C5aGsHE7YICeY-9" value="&lt;h6&gt;&lt;font style=&quot;font-size: 8px;&quot; color=&quot;#454545&quot; face=&quot;Times New Roman&quot;&gt;Criação de componentes globais&lt;/font&gt;&lt;/h6&gt;" style="rounded=0;whiteSpace=wrap;html=1;fontFamily=Georgia;fontSize=8;fontColor=#454545;" vertex="1" parent="1">
          <mxGeometry x="610" y="330" width="80" height="40" as="geometry" />
        </mxCell>
        <mxCell id="SuHVIz9C5aGsHE7YICeY-13" value="&lt;h6&gt;&lt;font style=&quot;&quot; color=&quot;#454545&quot; face=&quot;Times New Roman&quot;&gt;&lt;span style=&quot;font-size: 8px;&quot;&gt;Criação de tela de visualização próximos&amp;nbsp;eventos&lt;/span&gt;&lt;/font&gt;&lt;/h6&gt;" style="rounded=0;whiteSpace=wrap;html=1;fontFamily=Georgia;fontSize=8;fontColor=#454545;" vertex="1" parent="1">
          <mxGeometry x="610" y="390" width="80" height="40" as="geometry" />
        </mxCell>
        <mxCell id="SuHVIz9C5aGsHE7YICeY-14" style="edgeStyle=orthogonalEdgeStyle;rounded=0;orthogonalLoop=1;jettySize=auto;html=1;fontFamily=Georgia;fontSize=8;fontColor=#454545;entryX=0;entryY=0.5;entryDx=0;entryDy=0;" edge="1" parent="1" target="SuHVIz9C5aGsHE7YICeY-15">
          <mxGeometry relative="1" as="geometry">
            <mxPoint x="710" y="290" as="targetPoint" />
            <Array as="points">
              <mxPoint x="720" y="290" />
            </Array>
            <mxPoint x="720" y="240" as="sourcePoint" />
          </mxGeometry>
        </mxCell>
        <mxCell id="SuHVIz9C5aGsHE7YICeY-15" value="&lt;h6&gt;&lt;font style=&quot;font-size: 8px;&quot; color=&quot;#454545&quot; face=&quot;Times New Roman&quot;&gt;Verificação da cobertura de testes automatizados&lt;/font&gt;&lt;/h6&gt;" style="rounded=0;whiteSpace=wrap;html=1;fontFamily=Georgia;fontSize=8;fontColor=#454545;" vertex="1" parent="1">
          <mxGeometry x="730" y="270" width="80" height="40" as="geometry" />
        </mxCell>
        <mxCell id="SuHVIz9C5aGsHE7YICeY-16" style="edgeStyle=orthogonalEdgeStyle;rounded=0;orthogonalLoop=1;jettySize=auto;html=1;exitX=0.5;exitY=1;exitDx=0;exitDy=0;entryX=0.503;entryY=-0.07;entryDx=0;entryDy=0;entryPerimeter=0;" edge="1" parent="1" target="SuHVIz9C5aGsHE7YICeY-17">
          <mxGeometry relative="1" as="geometry">
            <mxPoint x="770" y="310" as="sourcePoint" />
          </mxGeometry>
        </mxCell>
        <mxCell id="SuHVIz9C5aGsHE7YICeY-17" value="&lt;h6&gt;&lt;font style=&quot;font-size: 8px;&quot; color=&quot;#454545&quot; face=&quot;Times New Roman&quot;&gt;Testes manuais pelos desenvolvedores&lt;/font&gt;&lt;/h6&gt;" style="rounded=0;whiteSpace=wrap;html=1;fontFamily=Georgia;fontSize=8;fontColor=#454545;" vertex="1" parent="1">
          <mxGeometry x="730" y="330" width="80" height="40" as="geometry" />
        </mxCell>
        <mxCell id="dBNjOqqf9OJtNQdYFnji-1" style="edgeStyle=orthogonalEdgeStyle;rounded=0;orthogonalLoop=1;jettySize=auto;html=1;fontFamily=Georgia;fontSize=8;fontColor=#454545;" edge="1" parent="1" target="dBNjOqqf9OJtNQdYFnji-2">
          <mxGeometry relative="1" as="geometry">
            <mxPoint x="530" y="490" as="sourcePoint" />
          </mxGeometry>
        </mxCell>
        <mxCell id="dBNjOqqf9OJtNQdYFnji-2" value="&lt;h6&gt;&lt;font face=&quot;Times New Roman&quot;&gt;&lt;span style=&quot;font-size: 8px;&quot;&gt;Avaliação dos eventos&lt;/span&gt;&lt;/font&gt;&lt;/h6&gt;" style="rounded=0;whiteSpace=wrap;html=1;fontFamily=Georgia;fontSize=8;fontColor=#454545;" vertex="1" parent="1">
          <mxGeometry x="490" y="510" width="80" height="40" as="geometry" />
        </mxCell>
        <mxCell id="dBNjOqqf9OJtNQdYFnji-3" style="edgeStyle=orthogonalEdgeStyle;rounded=0;orthogonalLoop=1;jettySize=auto;html=1;fontFamily=Georgia;fontSize=8;fontColor=#454545;" edge="1" parent="1" target="dBNjOqqf9OJtNQdYFnji-4">
          <mxGeometry relative="1" as="geometry">
            <mxPoint x="530" y="550" as="sourcePoint" />
          </mxGeometry>
        </mxCell>
        <mxCell id="dBNjOqqf9OJtNQdYFnji-4" value="&lt;h6&gt;&lt;font face=&quot;Times New Roman&quot;&gt;&lt;span style=&quot;font-size: 8px;&quot;&gt;Cadastro de usuários&lt;/span&gt;&lt;/font&gt;&lt;/h6&gt;" style="rounded=0;whiteSpace=wrap;html=1;fontFamily=Georgia;fontSize=8;fontColor=#454545;" vertex="1" parent="1">
          <mxGeometry x="490" y="570" width="80" height="40" as="geometry" />
        </mxCell>
        <mxCell id="dBNjOqqf9OJtNQdYFnji-5" style="edgeStyle=orthogonalEdgeStyle;rounded=0;orthogonalLoop=1;jettySize=auto;html=1;fontFamily=Georgia;fontSize=8;fontColor=#454545;" edge="1" parent="1" target="dBNjOqqf9OJtNQdYFnji-6">
          <mxGeometry relative="1" as="geometry">
            <mxPoint x="530" y="610" as="sourcePoint" />
          </mxGeometry>
        </mxCell>
        <mxCell id="dBNjOqqf9OJtNQdYFnji-6" value="&lt;h6&gt;&lt;font face=&quot;Times New Roman&quot;&gt;&lt;span style=&quot;font-size: 8px;&quot;&gt;Login&lt;/span&gt;&lt;/font&gt;&lt;/h6&gt;" style="rounded=0;whiteSpace=wrap;html=1;fontFamily=Georgia;fontSize=8;fontColor=#454545;" vertex="1" parent="1">
          <mxGeometry x="490" y="630" width="80" height="40" as="geometry" />
        </mxCell>
        <mxCell id="dBNjOqqf9OJtNQdYFnji-7" style="edgeStyle=orthogonalEdgeStyle;rounded=0;orthogonalLoop=1;jettySize=auto;html=1;fontFamily=Georgia;fontSize=8;fontColor=#454545;" edge="1" parent="1" target="dBNjOqqf9OJtNQdYFnji-8">
          <mxGeometry relative="1" as="geometry">
            <mxPoint x="650" y="430" as="sourcePoint" />
          </mxGeometry>
        </mxCell>
        <mxCell id="dBNjOqqf9OJtNQdYFnji-8" value="&lt;h6&gt;&lt;font face=&quot;Times New Roman&quot;&gt;&lt;span style=&quot;font-size: 8px;&quot;&gt;Criação detalhamento de próximos&amp;nbsp;eventos&lt;/span&gt;&lt;/font&gt;&lt;/h6&gt;" style="rounded=0;whiteSpace=wrap;html=1;fontFamily=Georgia;fontSize=8;fontColor=#454545;" vertex="1" parent="1">
          <mxGeometry x="610" y="450" width="80" height="40" as="geometry" />
        </mxCell>
        <mxCell id="dBNjOqqf9OJtNQdYFnji-9" style="edgeStyle=orthogonalEdgeStyle;rounded=0;orthogonalLoop=1;jettySize=auto;html=1;fontFamily=Georgia;fontSize=8;fontColor=#454545;" edge="1" parent="1" target="dBNjOqqf9OJtNQdYFnji-10">
          <mxGeometry relative="1" as="geometry">
            <mxPoint x="650" y="490" as="sourcePoint" />
          </mxGeometry>
        </mxCell>
        <mxCell id="dBNjOqqf9OJtNQdYFnji-10" value="&lt;h6&gt;&lt;font face=&quot;Times New Roman&quot;&gt;&lt;span style=&quot;font-size: 8px;&quot;&gt;Criação das interações com eventos participados&lt;/span&gt;&lt;/font&gt;&lt;/h6&gt;" style="rounded=0;whiteSpace=wrap;html=1;fontFamily=Georgia;fontSize=8;fontColor=#454545;" vertex="1" parent="1">
          <mxGeometry x="610" y="510" width="80" height="40" as="geometry" />
        </mxCell>
        <mxCell id="dBNjOqqf9OJtNQdYFnji-11" style="edgeStyle=orthogonalEdgeStyle;rounded=0;orthogonalLoop=1;jettySize=auto;html=1;fontFamily=Georgia;fontSize=8;fontColor=#454545;" edge="1" parent="1" target="dBNjOqqf9OJtNQdYFnji-12">
          <mxGeometry relative="1" as="geometry">
            <mxPoint x="650" y="550" as="sourcePoint" />
          </mxGeometry>
        </mxCell>
        <mxCell id="dBNjOqqf9OJtNQdYFnji-12" value="&lt;h6&gt;&lt;font face=&quot;Times New Roman&quot;&gt;&lt;span style=&quot;font-size: 8px;&quot;&gt;Visualização de métricas&amp;nbsp;dos eventos realizados&lt;/span&gt;&lt;/font&gt;&lt;/h6&gt;" style="rounded=0;whiteSpace=wrap;html=1;fontFamily=Georgia;fontSize=8;fontColor=#454545;" vertex="1" parent="1">
          <mxGeometry x="610" y="570" width="80" height="40" as="geometry" />
        </mxCell>
        <mxCell id="dBNjOqqf9OJtNQdYFnji-13" style="edgeStyle=orthogonalEdgeStyle;rounded=0;orthogonalLoop=1;jettySize=auto;html=1;fontFamily=Georgia;fontSize=8;fontColor=#454545;" edge="1" parent="1" target="dBNjOqqf9OJtNQdYFnji-14">
          <mxGeometry relative="1" as="geometry">
            <mxPoint x="650" y="610" as="sourcePoint" />
          </mxGeometry>
        </mxCell>
        <mxCell id="dBNjOqqf9OJtNQdYFnji-14" value="&lt;h6&gt;&lt;font face=&quot;Times New Roman&quot;&gt;&lt;span style=&quot;font-size: 8px;&quot;&gt;Cadastro de usuário&lt;/span&gt;&lt;/font&gt;&lt;/h6&gt;" style="rounded=0;whiteSpace=wrap;html=1;fontFamily=Georgia;fontSize=8;fontColor=#454545;" vertex="1" parent="1">
          <mxGeometry x="610" y="630" width="80" height="40" as="geometry" />
        </mxCell>
        <mxCell id="dBNjOqqf9OJtNQdYFnji-15" style="edgeStyle=orthogonalEdgeStyle;rounded=0;orthogonalLoop=1;jettySize=auto;html=1;fontFamily=Georgia;fontSize=8;fontColor=#454545;" edge="1" parent="1" target="dBNjOqqf9OJtNQdYFnji-16">
          <mxGeometry relative="1" as="geometry">
            <mxPoint x="650" y="670" as="sourcePoint" />
          </mxGeometry>
        </mxCell>
        <mxCell id="dBNjOqqf9OJtNQdYFnji-16" value="&lt;h6&gt;&lt;font face=&quot;Times New Roman&quot;&gt;&lt;span style=&quot;font-size: 8px;&quot;&gt;Login&lt;/span&gt;&lt;/font&gt;&lt;/h6&gt;" style="rounded=0;whiteSpace=wrap;html=1;fontFamily=Georgia;fontSize=8;fontColor=#454545;" vertex="1" parent="1">
          <mxGeometry x="610" y="690" width="80" height="40" as="geometry" />
        </mxCell>
      </root>
    </mxGraphModel>
  </diagram>
</mxfile>
